<?xml version="1.0" standalone="no"?>
<!DOCTYPE svg PUBLIC "-//W3C//DTD SVG 20010904//EN"
 "http://www.w3.org/TR/2001/REC-SVG-20010904/DTD/svg10.dtd">
<svg version="1.0" xmlns="http://www.w3.org/2000/svg"
 width="348.000000pt" height="348.000000pt" viewBox="0 0 348.000000 348.000000"
 preserveAspectRatio="xMidYMid meet">
<metadata>
Created by potrace 1.14, written by Peter Selinger 2001-2017
</metadata>
<g transform="translate(0.000000,348.000000) scale(0.100000,-0.100000)"
fill="#000000" stroke="none">
<path d="M2099 3037 c-8 -7 -44 -82 -78 -167 -35 -85 -69 -168 -76 -185 -8
-16 -79 -192 -160 -390 -80 -198 -150 -369 -155 -380 -5 -11 -35 -83 -66 -160
-31 -77 -62 -153 -69 -170 -8 -16 -68 -165 -135 -330 -139 -341 -217 -531
-230 -560 -47 -103 -50 -138 -15 -161 31 -20 61 -11 79 24 11 23 145 347 568
1382 33 80 92 226 133 325 155 383 187 461 201 490 25 58 94 235 94 245 0 17
-39 50 -57 50 -10 0 -25 -6 -34 -13z"/>
<path d="M983 2578 c-17 -18 -155 -179 -308 -358 -153 -179 -295 -345 -316
-370 -22 -24 -39 -54 -39 -66 0 -15 118 -159 338 -415 185 -216 345 -397 355
-403 13 -8 24 -7 45 4 59 34 56 38 -287 440 -316 368 -321 374 -303 394 20 23
124 145 158 186 12 14 41 48 65 75 24 28 67 77 94 110 28 32 79 93 115 134 65
77 74 87 149 174 45 52 51 85 23 110 -28 25 -55 21 -89 -15z"/>
<path d="M2207 2598 c-33 -25 -28 -55 17 -111 45 -55 452 -531 540 -631 28
-32 53 -62 54 -67 3 -8 -38 -60 -130 -164 -156 -177 -491 -574 -497 -590 -17
-43 18 -82 63 -71 13 3 51 39 85 81 34 41 68 80 75 87 6 7 121 141 255 298
134 157 253 295 264 307 41 46 28 67 -192 318 -15 17 -120 140 -235 275 -115
135 -218 253 -229 263 -23 20 -47 22 -70 5z"/>
</g>
</svg>
